<svg id="Layer_3" data-name="Layer 3" xmlns="http://www.w3.org/2000/svg" viewBox="0 0 1155.64 633.1"><defs><style>.cls-1{fill:#0d182d;}.cls-2{fill:#33a3ff;}.cls-3{fill:#f73300;}.cls-4{fill:#e8343d;}.cls-5{fill:#fff;}</style></defs><title>Catromlogo White text</title><path class="cls-1" d="M910,423.86" transform="translate(-91.16 -66)"/><path class="cls-2" d="M1051.92,592.05c-29.35,9.26-68.81,16.93-90.18.93-18.47-13.84-25.56-45-28-80.39a116.34,116.34,0,0,1-67.08.14c3.3,53,15.49,104.34,54.94,133.88,18,13.49,40.08,21,65.58,22.45,3,.16,6,.25,9.11.25,22.48,0,47.39-4.4,75.81-13.36Z" transform="translate(-91.16 -66)"/><path class="cls-2" d="M861.3,294.1a116.19,116.19,0,0,1,67.24-3.05,371.69,371.69,0,0,0-11-56.77c-18.78-66.11-57-108-113.69-124.45-29-8.43-57.18-6.5-86.1,5.93-23.13,9.93-43.5,25-65,40.93-44.24,32.72-90,66.54-166.4,59l-6.6,66.68c45.6,4.52,87.29-1.72,127.45-19.08,34-14.68,61.29-34.88,85.38-52.7,40.39-29.86,62.85-45.05,92.62-36.39C833.53,188.23,853.33,234.24,861.3,294.1Z" transform="translate(-91.16 -66)"/><circle class="cls-3" cx="808.78" cy="336.54" r="90.06"/><path class="cls-4" d="M1114.54,567.42A73,73,0,0,1,1131,668.84a71.83,71.83,0,0,1-100.71,16.59A73,73,0,0,1,1013.83,584,71.83,71.83,0,0,1,1114.54,567.42ZM740.8,96.26a73,73,0,0,0,16.48,101.42c32.36,23.43,77.45,13.13,100.71-19.46s15.89-75.12-16.47-98.55A71.84,71.84,0,0,0,740.8,96.26ZM436.23,206.84c-23.07,32.32-15.54,77.51,16.82,100.94a71.55,71.55,0,0,0,100.37-16.11c23.07-32.32,15.54-77.51-16.82-100.94A71.55,71.55,0,0,0,436.23,206.84Z" transform="translate(-91.16 -66)"/><path class="cls-5" d="M708.5,457c-2.74.42-5.47.74-8.21,1l-8.52.63V517H638.44V286.3h53.33A104,104,0,0,1,729,293.55a102.54,102.54,0,0,1,30.45,18.59A85.64,85.64,0,0,1,780,339.25a75.34,75.34,0,0,1,7.42,33.09,76.67,76.67,0,0,1-7.89,34.51,83.14,83.14,0,0,1-22.09,27.57L808.53,517H745.74ZM691.77,405A55.47,55.47,0,0,0,708,402a48.63,48.63,0,0,0,13.57-7.1,33.49,33.49,0,0,0,9.15-10.26,24.72,24.72,0,0,0,3.32-12.46,23.92,23.92,0,0,0-3.32-12.31,34.4,34.4,0,0,0-9.15-10.1,48.89,48.89,0,0,0-13.57-7.1,56.13,56.13,0,0,0-16.25-3Z" transform="translate(-91.16 -66)"/><path class="cls-5" d="M1178.32,285h54.91l13.57,232h-53.34l-5.67-94.68L1155.6,517h-53.34l-34.08-98.46L1061.87,517h-53.65L1023.05,285H1078l50.81,145.17Z" transform="translate(-91.16 -66)"/><path class="cls-5" d="M207,516.67a118.47,118.47,0,0,1-43.7-8.36,111.46,111.46,0,0,1-38.35-25.4A117.58,117.58,0,0,1,99.84,445.2a115.66,115.66,0,0,1,25.08-126.39,113.11,113.11,0,0,1,38.51-25.57,115.95,115.95,0,0,1,87.25,0A113.51,113.51,0,0,1,289,318.81l-37.55,37.55a60.56,60.56,0,0,0-20.83-13.73A64.4,64.4,0,0,0,207,338.06a63.1,63.1,0,0,0-23.5,4.57,60.83,60.83,0,0,0-20.68,13.73,66,66,0,0,0-13.57,20.51,61.87,61.87,0,0,0-4.73,24,60.64,60.64,0,0,0,4.73,23.82A66.39,66.39,0,0,0,162.79,445a60.51,60.51,0,0,0,20.68,13.72,62.92,62.92,0,0,0,23.5,4.58,64.21,64.21,0,0,0,23.67-4.58A60.25,60.25,0,0,0,251.47,445L289,482.91a111.85,111.85,0,0,1-38.18,25.4A118.15,118.15,0,0,1,207,516.67Z" transform="translate(-91.16 -66)"/><path class="cls-5" d="M431.61,517l-9.15-28.09h-72.9L340.09,517H283.61L362.5,285.35H413L487.78,517Zm-63.75-81.42h37.56L387.11,379.4Z" transform="translate(-91.16 -66)"/><path class="cls-5" d="M619.21,284.41v53.33H574.72V517H521.38V337.74H477.2V284.41Z" transform="translate(-91.16 -66)"/></svg>